<?xml version="1.0" encoding="UTF-8"?>
<svg width="24px" height="24px" viewBox="0 0 24 24" version="1.1" xmlns="http://www.w3.org/2000/svg" xmlns:xlink="http://www.w3.org/1999/xlink">
    <!-- Generator: Sketch 47.1 (45422) - http://www.bohemiancoding.com/sketch -->
    <title>food-icon</title>
    <desc>Created with Sketch.</desc>
    <defs></defs>
    <g id="Page-1" stroke="none" stroke-width="1" fill="none" fill-rule="evenodd">
        <g id="food-icon" fill="#757575">
            <path d="M9,6.5 L9,1 C9,0.44771525 8.55228475,-1.01453063e-16 8,0 C7.44771525,1.01453063e-16 7,0.44771525 7,1 L7,1 L7,6.5 L7,8 C7,8.55228475 6.55228475,9 6,9 C5.44771525,9 5,8.55228475 5,8 L5,6.5 L5,1 C5,0.44771525 4.55228475,-1.01453063e-16 4,0 L4,0 L4,0 C3.44771525,1.01453063e-16 3,0.44771525 3,1 L3,1 L3,8 L3,9 L7,9 L7,9 L3,9 C3,10.3432925 4.47144652,12.1376938 6.5,12.7687677 L6.5,23 C6.5,23.5522847 6.94771525,24 7.5,24 L8.5,24 C9.05228475,24 9.5,23.5522847 9.5,23 L9.5,12.7687677 C11.5285535,12.1376938 13,10.3432925 13,9 L9,9 L9,9 L12,9 L13,9 L13,1 C13,0.44771525 12.5522847,-1.01453063e-16 12,0 C11.4477153,1.01453063e-16 11,0.44771525 11,1 L11,1 L11,6.5 L11,8 C11,8.55228475 10.5522847,9 10,9 C9.44771525,9 9,8.55228475 9,8 L9,6.5 Z M18.5,0 L20,0 C20.5522847,-1.01453063e-16 21,0.44771525 21,1 L21,22.75 C21,23.4403559 20.4403559,24 19.75,24 C19.0596441,24 18.5,23.4403559 18.5,22.75 L18.5,14.5 L17,14.5 C16.4477153,14.5 16,14.0522847 16,13.5 L16,4.5 C16,1.83333333 16.8333333,0.333333333 18.5,0 Z" id="icn-food"></path>
        </g>
    </g>
</svg>