<?xml version="1.0" encoding="UTF-8"?>
<svg width="24px" height="24px" viewBox="0 0 24 24" version="1.1" xmlns="http://www.w3.org/2000/svg" xmlns:xlink="http://www.w3.org/1999/xlink">
    <!-- Generator: Sketch 47.1 (45422) - http://www.bohemiancoding.com/sketch -->
    <title>news-icon</title>
    <desc>Created with Sketch.</desc>
    <defs></defs>
    <g id="Page-1" stroke="none" stroke-width="1" fill="none" fill-rule="evenodd">
        <g id="news-icon" fill="#757575">
            <path d="M1,0 L18,0 C18.5522847,-1.01453063e-16 19,0.44771525 19,1 L19,23 C19,23.5522847 18.5522847,24 18,24 L1,24 C0.44771525,24 6.76353751e-17,23.5522847 0,23 L0,1 L0,1 C-6.76353751e-17,0.44771525 0.44771525,1.01453063e-16 1,0 L1,0 Z M3,7 L3,7 C2.44771525,7 2,7.44771525 2,8 L2,8 L2,10 C2,10.5522847 2.44771525,11 3,11 L7,11 C7.55228475,11 8,10.5522847 8,10 L8,8 C8,7.44771525 7.55228475,7 7,7 L3,7 Z M10.5,7 C10.2238576,7 10,7.22385763 10,7.5 C10,7.77614237 10.2238576,8 10.5,8 L16.5,8 C16.7761424,8 17,7.77614237 17,7.5 L17,7.5 C17,7.22385763 16.7761424,7 16.5,7 L16.5,7 L10.5,7 Z M10.5,10 C10.2238576,10 10,10.2238576 10,10.5 C10,10.7761424 10.2238576,11 10.5,11 L16.5,11 C16.7761424,11 17,10.7761424 17,10.5 L17,10.5 C17,10.2238576 16.7761424,10 16.5,10 L16.5,10 L10.5,10 Z M2.5,13 C2.22385763,13 2,13.2238576 2,13.5 C2,13.7761424 2.22385763,14 2.5,14 L16.5,14 C16.7761424,14 17,13.7761424 17,13.5 C17,13.2238576 16.7761424,13 16.5,13 L16.5,13 L2.5,13 Z M2.5,16 C2.22385763,16 2,16.2238576 2,16.5 C2,16.7761424 2.22385763,17 2.5,17 L16.5,17 C16.7761424,17 17,16.7761424 17,16.5 C17,16.2238576 16.7761424,16 16.5,16 L16.5,16 L2.5,16 Z M2.5,19 C2.22385763,19 2,19.2238576 2,19.5 C2,19.7761424 2.22385763,20 2.5,20 L14.5,20 C14.7761424,20 15,19.7761424 15,19.5 L15,19.5 C15,19.2238576 14.7761424,19 14.5,19 L2.5,19 Z M3,3 L3,3 C2.44771525,3 2,3.44771525 2,4 L2,4 C2,4.55228475 2.44771525,5 3,5 L16,5 C16.5522847,5 17,4.55228475 17,4 L17,4 C17,3.44771525 16.5522847,3 16,3 L3,3 Z M20,6 L22.7192236,6 C23.2715083,6 23.7192236,6.44771525 23.7192236,7 C23.7192236,7.08176181 23.7091962,7.16321502 23.6893661,7.24253563 L20,22 L20,6 Z" id="Combined-Shape"></path>
        </g>
    </g>
</svg>