<?xml version="1.0" encoding="UTF-8"?>
<svg width="24px" height="24px" viewBox="0 0 24 24" version="1.1" xmlns="http://www.w3.org/2000/svg" xmlns:xlink="http://www.w3.org/1999/xlink">
    <!-- Generator: Sketch 47.1 (45422) - http://www.bohemiancoding.com/sketch -->
    <title>sport-icon</title>
    <desc>Created with Sketch.</desc>
    <defs></defs>
    <g id="Page-1" stroke="none" stroke-width="1" fill="none" fill-rule="evenodd">
        <g id="sport-icon" fill="#757575">
            <path d="M14.3293521,13.0065147 C16.7764507,14.3522683 18,15.3618546 18,16.0352736 C18,17.0470314 15.3696436,22.1058207 14.8435723,23.1175786 C14.3175011,24.6352154 11.1610734,24.1293365 12.213216,22.1058207 C12.9146443,20.7568103 13.7914298,19.0705472 14.8435723,17.0470314 L12.5,16 C10.3288288,14.6666667 9.56756757,13.3333333 10.2162162,12 C11.4653797,9.61568396 12.5672597,7.83686693 13.5218561,6.66354892 L13.5179799,6.66680864 L10.5539398,5.61914903 C9.23658857,6.31758877 8.08390629,7.01602851 7.0958929,7.71446825 C5.61387282,8.76212786 4.13185274,6.66680864 5.61387282,5.61914903 C7.0958929,4.57148942 10.0599331,3 10.5539398,3 C10.8832776,3 12.5319643,3.66666667 15.5,5 L15.4635244,5.0306747 C15.4985463,5.01904842 15.5332274,5.00882352 15.5675676,5 C16.8648649,5.66666667 17.6756757,6.33333333 18,7 C18,7 17.9899491,7.01644696 17.9698472,7.04934089 C17.9903206,7.03297852 18.0109535,7.01653156 18.031746,7 L19.047619,10.7692308 C21.7566138,11.4871795 23.1111111,11.8461538 23.1111111,11.8461538 C24.1269841,11.8461538 24.6349206,14 22.6031746,14 C22.6031746,14 17.5238095,12.9230769 17.015873,12.3846154 C16.6688156,12.0167012 16.3217582,10.8946336 16.136727,10.0489922 C15.6354234,10.8693071 15.0329651,11.8551479 14.3293521,13.0065147 Z M9,14 C9.33333333,15.1111111 10,15.8518519 11,16.2222222 C10,18.0740741 9.33333333,19 9,19 C8.5,19 4.5,19 2.5,19 C0.5,19 0.5,16.2222222 2.5,16.2222222 C3.83333333,16.2222222 5.5,16.2222222 7.5,16.2222222 L9,14 Z M18.5,5 C17.1192881,5 16,3.88071187 16,2.5 C16,1.11928813 17.1192881,0 18.5,0 C19.8807119,0 21,1.11928813 21,2.5 C21,3.88071187 19.8807119,5 18.5,5 Z" id="icn-sport"></path>
        </g>
    </g>
</svg>